<svg width="500" height="524" viewBox="0 0 500 524" fill="none" xmlns="http://www.w3.org/2000/svg">
<path d="M298.637 523.623C301.826 523.623 306.53 524.413 309.33 523.182C310.717 522.573 312.808 522.633 314.32 522.245C316.335 521.727 318.348 521.228 320.325 520.577C327.161 518.329 333.58 514.512 339.044 509.851C344.383 505.298 348.975 499.896 352.337 493.723C355.892 487.196 357.734 480.21 359.556 473.064C361.43 465.712 361.761 457.743 361.815 450.184C361.869 442.569 361.347 434.633 359.65 427.213C358.024 420.104 356.358 413.21 353.697 406.387C350.897 399.21 347.061 392.385 343.626 385.501C340.306 378.847 337.13 372.135 333.916 365.432C330.802 358.939 327.727 352.064 325.599 345.175C323.5 338.377 321.638 331.277 321.963 324.095C322.067 321.81 322.322 316.852 324.408 315.377C325.457 314.635 327.433 315.052 328.618 315.077C330.816 315.122 333.012 315.211 335.209 315.305C351.118 315.988 367.081 315.925 383.004 315.906C398.726 315.887 414.428 315.793 430.124 314.787C437.882 314.289 445.798 313.964 453.482 312.751C460.413 311.656 467.114 309.788 472.681 305.32C478.092 300.978 482.764 295.231 486.792 289.621C490.886 283.92 494.8 277.583 497.186 270.954C498.295 267.871 499.561 264.529 499.901 261.256C500.281 257.596 499.568 254.619 497.757 251.44C494.265 245.311 489.339 240.088 485.524 234.162C483.6 231.172 482.183 228.205 482.723 224.56C483.266 220.896 485.128 217.447 486.918 214.256C490.306 208.217 494.336 202.494 497.421 196.289C498.839 193.436 500.173 190.221 499.889 186.972C499.588 183.535 497.512 180.429 495.494 177.741C491.222 172.048 486.052 167.088 481.803 161.375C479.819 158.708 477.859 155.802 477.745 152.362C477.625 148.715 478.587 145.152 479.817 141.751C482.354 134.738 485.816 127.845 487.822 120.667C489.923 113.146 487.658 106.977 483.138 100.888C478.797 95.04 473.179 90.2095 468.028 85.1055C463.062 80.185 458.669 75.2243 458.721 67.8621C458.748 64.0827 458.776 60.3033 458.813 56.524C458.849 52.7151 459.31 48.6173 458.239 44.9081C456.347 38.3544 450.862 32.4551 446.266 27.634C441.282 22.4055 435.706 17.7109 429.8 13.5593C423.861 9.3851 417.799 6.48846 410.775 4.72242C403.563 2.9094 395.974 2.02251 388.566 1.3849C357.349 -1.30218 325.947 0.555417 294.701 1.66614C279.277 2.21447 263.791 3.20585 248.429 4.7151C244.888 5.06299 241.35 5.20883 237.806 5.46549C234.309 5.71866 230.735 6.62671 227.286 7.25911C220.029 8.5895 212.764 9.91272 205.523 11.322C190.772 14.1925 175.963 16.7894 161.189 19.5436C153.738 20.9326 146.281 22.2851 138.828 23.659C135.203 24.3272 131.578 24.9968 127.963 25.7148C126.855 25.9348 125.696 26.0861 125.489 27.402C125.172 29.4273 125.45 31.6981 125.451 33.7474C125.482 97.7798 125.481 161.812 125.481 225.845C125.481 229.686 125.481 233.529 125.481 237.37C125.481 238.305 125.18 239.876 125.721 240.707C126.354 241.679 129.094 241.179 130.024 241.184C133.419 241.203 136.881 240.906 140.23 241.593C143.653 242.295 146.797 243.889 149.718 245.766C161.469 253.313 170.279 265.678 177.642 277.301C185.666 289.969 192.783 303.304 199.058 316.92C205.379 330.634 210.91 344.679 216.939 358.523C222.808 371.997 233.573 381.021 244.81 389.977C250.491 394.505 256.07 399.128 260.776 404.696C265.533 410.324 269.388 416.7 272.413 423.411C278.657 437.262 282.802 452.472 284.898 467.52C287.04 482.897 289.242 498.266 290.057 513.793C290.192 516.363 290.611 518.819 292.597 520.643C293.441 521.418 294.454 521.986 295.523 522.387C296.356 522.7 298.194 522.736 298.637 523.623C298.364 523.077 302.039 523.623 298.637 523.623ZM0 234.932C0 195.806 0 156.68 0 117.554C0 101.519 0 85.4839 0 69.4488C0 61.4312 0 53.4136 0 45.396C0 41.2268 0 37.0577 0 32.8886C0 30.9643 0 29.0401 0 27.1159C1.01745 26.909 1.05781 24.555 1.34507 23.7758C3.36745 18.2917 8.4986 13.5787 13.9762 11.6765C17.1956 10.5583 20.4603 10.5402 23.8273 10.538C27.634 10.5354 31.4407 10.5339 35.2474 10.533C51.1087 10.5291 66.97 10.5363 82.8313 10.5295C89.4084 10.5267 95.5674 12.9145 99.914 17.9939C104.547 23.4079 104.935 29.9542 104.933 36.7641C104.929 52.8335 104.927 68.903 104.925 84.9724C104.921 117.111 104.92 149.25 104.916 181.389C104.914 197.373 105.314 213.417 104.886 229.395C104.702 236.279 102.323 242.614 96.8398 247.013C91.526 251.276 85.2637 251.61 78.7415 251.625C62.748 251.661 46.7545 251.672 30.7611 251.627C23.5249 251.606 16.0325 252.304 9.68754 248.158C7.13086 246.487 4.87976 244.351 3.23805 241.764C2.48432 240.577 1.86262 239.308 1.37471 237.989C1.11364 237.283 0.928347 235.09 0 234.932C0.543952 235.025 0 165.66 0 234.932Z" fill="white"/>
</svg>
