<svg width="501" height="525" viewBox="0 0 501 525" fill="none" xmlns="http://www.w3.org/2000/svg">
<path d="M298.884 1.23035C302.074 1.23035 306.778 0.440083 309.578 1.671C310.964 2.28058 313.055 2.21974 314.567 2.60813C316.582 3.12579 318.595 3.62496 320.573 4.2756C327.408 6.52434 333.827 10.3408 339.292 15.0019C344.63 19.5555 349.223 24.9573 352.585 31.1303C356.139 37.6569 357.981 44.6426 359.803 51.789C361.677 59.1414 362.008 67.1105 362.062 74.6687C362.116 82.2841 361.594 90.2204 359.898 97.6399C358.272 104.749 356.606 111.643 353.944 118.466C351.144 125.644 347.308 132.468 343.873 139.353C340.554 146.006 337.377 152.718 334.163 159.421C331.049 165.914 327.974 172.789 325.846 179.678C323.747 186.476 321.885 193.576 322.211 200.758C322.314 203.043 322.57 208.001 324.655 209.476C325.705 210.218 327.681 209.801 328.865 209.777C331.063 209.731 333.26 209.642 335.456 209.548C351.365 208.865 367.329 208.928 383.251 208.947C398.973 208.966 414.675 209.06 430.372 210.066C438.129 210.564 446.046 210.889 453.73 212.102C460.661 213.197 467.361 215.065 472.929 219.533C478.339 223.875 483.012 229.622 487.04 235.232C491.133 240.933 495.047 247.27 497.433 253.899C498.542 256.982 499.809 260.324 500.148 263.597C500.528 267.257 499.816 270.235 498.004 273.414C494.512 279.542 489.587 284.765 485.772 290.691C483.847 293.681 482.431 296.648 482.97 300.293C483.513 303.957 485.376 307.406 487.166 310.597C490.554 316.636 494.583 322.359 497.668 328.564C499.086 331.417 500.421 334.632 500.136 337.882C499.835 341.318 497.759 344.424 495.742 347.112C491.469 352.805 486.299 357.765 482.05 363.478C480.067 366.145 478.106 369.051 477.993 372.491C477.872 376.138 478.835 379.701 480.065 383.102C482.601 390.115 486.064 397.008 488.069 404.187C490.17 411.707 487.906 417.876 483.385 423.965C479.045 429.813 473.427 434.644 468.275 439.748C463.309 444.668 458.916 449.629 458.969 456.991C458.995 460.77 459.024 464.55 459.06 468.329C459.097 472.138 459.558 476.236 458.487 479.945C456.595 486.499 451.109 492.398 446.514 497.219C441.53 502.448 435.953 507.142 430.047 511.294C424.108 515.468 418.047 518.365 411.022 520.131C403.811 521.944 396.221 522.831 388.814 523.468C357.596 526.155 326.195 524.298 294.948 523.187C279.524 522.639 264.038 521.647 248.676 520.138C245.136 519.79 241.598 519.644 238.053 519.388C234.557 519.134 230.982 518.226 227.533 517.594C220.276 516.264 213.012 514.94 205.77 513.531C191.02 510.661 176.21 508.064 161.437 505.309C153.986 503.92 146.529 502.568 139.075 501.194C135.451 500.526 131.826 499.856 128.21 499.138C127.103 498.918 125.943 498.767 125.737 497.451C125.419 495.426 125.698 493.155 125.699 491.106C125.73 427.073 125.728 363.041 125.729 299.008C125.729 295.167 125.729 291.325 125.729 287.483C125.729 286.548 125.428 284.977 125.969 284.146C126.601 283.174 129.342 283.674 130.271 283.669C133.666 283.65 137.129 283.947 140.477 283.261C143.9 282.558 147.044 280.964 149.966 279.088C161.717 271.54 170.527 259.175 177.889 247.553C185.913 234.885 193.03 221.549 199.306 207.933C205.626 194.219 211.158 180.175 217.187 166.33C223.055 152.856 233.82 143.832 245.057 134.876C250.739 130.348 256.317 125.725 261.023 120.157C265.781 114.529 269.635 108.153 272.66 101.442C278.905 87.5908 283.05 72.3812 285.146 57.3333C287.288 41.9563 289.489 26.587 290.304 11.0603C290.439 8.49023 290.858 6.03419 292.845 4.20973C293.688 3.43501 294.702 2.86727 295.77 2.46564C296.603 2.15267 298.441 2.11706 298.884 1.23035C298.612 1.77582 302.287 1.23035 298.884 1.23035ZM0.247437 289.922C0.247437 329.047 0.247437 368.173 0.247437 407.299C0.247437 423.334 0.247437 439.369 0.247437 455.404C0.247437 463.422 0.247437 471.439 0.247437 479.457C0.247437 483.626 0.247437 487.795 0.247437 491.965C0.247437 493.889 0.247437 495.813 0.247437 497.737C1.26489 497.944 1.30524 500.298 1.59251 501.077C3.61489 506.561 8.74604 511.274 14.2236 513.177C17.443 514.295 20.7078 514.313 24.0747 514.315C27.8814 514.318 31.6881 514.319 35.4948 514.32C51.3561 514.324 67.2174 514.317 83.0787 514.324C89.6558 514.326 95.8148 511.939 100.161 506.859C104.795 501.445 105.182 494.899 105.181 488.089C105.177 472.02 105.174 455.95 105.172 439.881C105.168 407.742 105.168 375.603 105.164 343.464C105.162 327.48 105.561 311.436 105.134 295.458C104.95 288.574 102.57 282.239 97.0872 277.84C91.7734 273.577 85.5111 273.243 78.9889 273.228C62.9955 273.192 47.0019 273.181 31.0086 273.226C23.7724 273.247 16.2799 272.549 9.93498 276.695C7.37829 278.366 5.1272 280.502 3.48549 283.089C2.73176 284.276 2.11005 285.545 1.62215 286.864C1.36108 287.57 1.17578 289.763 0.247437 289.922C0.791388 289.828 0.247437 359.193 0.247437 289.922Z" fill="white"/>
</svg>
